<svg width="167" height="152" viewBox="0 0 167 152" fill="none" xmlns="http://www.w3.org/2000/svg">
<g clip-path="url(#clip0)">
<path d="M43.4452 73.9265H38.2705V77.1288H43.4452V73.9265Z" fill="#0026AC"/>
<path opacity="0.18" d="M8.31239 139.178C7.02961 139.553 5.43127 140.521 5.88537 141.775C6.10088 142.375 6.732 142.71 7.31695 142.973C12.2531 145.176 17.6436 146.183 23.0464 145.912C19.6494 146.331 16.4787 147.829 14.0054 150.184C21.7303 151.865 29.7092 151.913 37.6085 151.944C57.7037 152.017 77.8006 152.022 97.8992 151.959C110.309 151.918 122.724 151.852 135.123 151.321C143.52 150.961 151.997 150.371 160.034 147.924C163.19 146.967 166.764 145.085 167 141.795L159.355 139.541C158.857 139.392 158.295 139.191 158.103 138.708C157.743 137.814 158.949 137.038 159.06 136.08C159.203 134.803 157.52 134.219 156.255 134.101C141.437 132.732 126.526 134.277 111.653 134.867C93.2119 135.582 74.7527 134.809 56.3448 133.667C39.8765 132.643 24.2984 134.51 8.31239 139.178Z" fill="#0026AC"/>
<path d="M68.3824 30.7871C67.8693 35.2994 69.6319 40.1029 67.8693 44.2858C67.4075 45.3788 66.7944 46.8395 67.7257 47.5673C68.0437 47.7839 68.4179 47.9045 68.8032 47.9146C69.6226 47.983 70.4473 47.8803 71.2244 47.6129C72.0016 47.3455 72.714 46.9194 73.316 46.3619C73.4161 47.0157 74.1344 47.4268 74.8015 47.4421C75.4685 47.4575 76.1022 47.1868 76.7359 46.985C79.9916 45.9406 83.5167 46.556 86.893 47.0948C88.4579 47.3502 90.2 47.5392 91.511 46.6454C92.8186 47.2416 94.2425 47.543 95.6808 47.528C97.119 47.513 98.5362 47.1819 99.8311 46.5586C99.4668 45.1311 98.1404 44.1504 97.5221 42.8123C97.0551 41.7908 97.0269 40.634 97.0089 39.5155C96.9679 37.2819 96.9277 35.0474 96.8884 32.8121C96.8396 30.1563 96.7575 27.3753 95.4465 25.0643C94.2895 23.0213 92.7578 17.1223 82.8111 17.1223C71.4406 17.1121 68.7775 27.2962 68.3824 30.7871Z" fill="#3F3D56"/>
<path d="M73.2159 36.6657C73.5289 37.8991 74.5423 38.8695 75.6994 39.416C76.8565 39.9625 78.147 40.1413 79.4195 40.2587C82.9805 40.5881 86.7236 40.4426 89.8998 38.8031C91.1262 38.1698 92.3807 36.9849 92.0728 35.6417C92.0435 35.4695 91.9723 35.3072 91.8654 35.1688C91.7585 35.0303 91.6192 34.92 91.4597 34.8475C91.2462 34.7863 91.0212 34.7758 90.8029 34.8168C87.306 35.1846 83.7938 35.6621 80.2661 35.5344C78.6036 35.4731 76.7847 35.3608 75.1991 34.8117C74.5962 34.6023 74.3576 34.2601 73.7265 34.684C73.0954 35.108 73.0492 36.0094 73.2159 36.6657Z" fill="url(#paint0_linear)"/>
<path d="M73.1954 25.6133C72.6385 26.069 72.2532 26.6991 72.1025 27.4009C71.9569 28.0985 71.9197 28.8142 71.9922 29.523C72.02 30.2121 72.1488 30.8935 72.3745 31.5455C72.6633 32.2267 73.0393 32.8678 73.493 33.4531C73.8574 33.9639 74.2259 34.4746 74.5988 34.9853C74.881 34.1707 75.4172 33.4531 75.7123 32.6538C75.8977 32.049 76.045 31.4332 76.1535 30.8101C76.3921 29.758 76.8026 28.739 76.9232 27.6639C76.9976 26.9719 77.1387 25.215 76.2408 25.0209C75.2838 24.8115 73.9728 25.0285 73.1954 25.6133Z" fill="#3F3D56"/>
<path d="M152.074 90.8496L149.485 110.804L148.867 115.503L146.15 136.313C146.149 137.621 145.626 138.875 144.697 139.8C143.767 140.724 142.507 141.244 141.193 141.244H35.3842C34.0727 141.24 32.8163 140.719 31.8901 139.794C30.964 138.87 30.4436 137.618 30.4429 136.313L27.8773 115.5L27.2975 110.804L24.7987 90.8496C24.7987 90.2011 24.9271 89.5589 25.1767 88.9598C25.4263 88.3607 25.7921 87.8165 26.2532 87.3582C26.7143 86.9 27.2616 86.5367 27.8638 86.2893C28.4661 86.0418 29.1115 85.9149 29.763 85.9159H147.119C148.434 85.9166 149.694 86.4367 150.623 87.3619C151.552 88.287 152.074 89.5416 152.074 90.8496Z" fill="#0026AC"/>
<path d="M152.074 90.8496L149.485 110.804L148.867 115.503L146.15 136.313C146.149 137.621 145.626 138.875 144.697 139.8C143.767 140.724 142.507 141.244 141.193 141.244H35.3842C34.0727 141.24 32.8163 140.719 31.8901 139.794C30.964 138.87 30.4436 137.618 30.4429 136.313L27.8773 115.5L27.2975 110.804L24.7987 90.8496C24.7987 90.2011 24.9271 89.5589 25.1767 88.9598C25.4263 88.3607 25.7921 87.8165 26.2532 87.3582C26.7143 86.9 27.2616 86.5367 27.8638 86.2893C28.4661 86.0418 29.1115 85.9149 29.763 85.9159H147.119C148.434 85.9166 149.694 86.4367 150.623 87.3619C151.552 88.287 152.074 89.5416 152.074 90.8496Z" fill="url(#paint1_linear)"/>
<path d="M152.074 90.8497L149.485 110.804L148.867 115.503L146.15 136.313C146.149 137.621 145.626 138.875 144.697 139.8C143.768 140.725 142.507 141.244 141.193 141.244H52.1476C50.8368 141.239 49.5814 140.717 48.6559 139.793C47.7305 138.869 47.2102 137.618 47.2089 136.313L44.6433 115.5L44.0558 110.804L41.5903 90.8497C41.5903 89.5417 42.1122 88.2871 43.0412 87.362C43.9702 86.4368 45.2303 85.9167 46.5444 85.916H147.114C147.765 85.9157 148.41 86.043 149.012 86.2908C149.614 86.5386 150.16 86.902 150.621 87.3602C151.081 87.8183 151.447 88.3623 151.696 88.9611C151.945 89.5598 152.074 90.2016 152.074 90.8497Z" fill="#0026AC"/>
<path d="M149.477 110.802L148.867 115.503H27.8517L27.2745 110.802H149.477Z" fill="url(#paint2_linear)"/>
<path d="M49.7745 83.0302V85.9158H32.9084V83.0302C32.9071 81.4654 33.5301 79.9642 34.6405 78.8566C35.7509 77.7489 37.2577 77.1256 38.8298 77.1235H43.8506C45.4224 77.1235 46.9298 77.745 48.0412 78.8513C49.1526 79.9576 49.777 81.458 49.777 83.0225L49.7745 83.0302Z" fill="#0026AC"/>
<path d="M49.7745 83.0302V85.9159H35.2354C35.2354 85.9159 35.0122 84.0491 35.5484 81.1635C36.0846 78.2778 39.6533 77.1287 39.6533 77.1287V73.9238H43.4529V77.1236H43.8737C45.4421 77.131 46.9437 77.7568 48.0497 78.8638C49.1557 79.9709 49.7758 81.469 49.7745 83.0302Z" fill="url(#paint3_linear)"/>
<path d="M50.0028 72.693V75.1778L48.5763 74.6951L46.0338 73.832V72.8565H35.2354V73.8294L33.3702 74.4627L31.2665 75.1727V72.6879C31.2665 71.6368 31.686 70.6287 32.4327 69.8854C33.1794 69.1422 34.1922 68.7246 35.2482 68.7246H46.0236C46.5465 68.7246 47.0642 68.8271 47.5473 69.0263C48.0304 69.2255 48.4694 69.5174 48.8391 69.8854C49.2088 70.2535 49.5021 70.6904 49.7022 71.1712C49.9023 71.6521 50.0053 72.1675 50.0053 72.6879L50.0028 72.693Z" fill="#0026AC"/>
<path d="M48.5763 74.1843V74.6951L46.0338 73.8319V72.8564H35.2354V73.8294L33.3702 74.4627V74.1843C33.3702 73.3316 33.7105 72.5139 34.3163 71.9109C34.922 71.308 35.7436 70.9692 36.6002 70.9692H45.3437C46.2003 70.9692 47.0219 71.308 47.6277 71.9109C48.2334 72.5139 48.5737 73.3316 48.5737 74.1843H48.5763Z" fill="url(#paint4_linear)"/>
<path d="M35.2354 73.8345V74.4576L31.2639 75.7497V75.1777L35.2354 73.8345Z" fill="url(#paint5_linear)"/>
<path d="M37.0928 74.5418C37.0927 74.7393 37.0313 74.9319 36.9169 75.0933C36.8026 75.2546 36.6409 75.3769 36.454 75.4432L30.9714 77.4121C30.8522 77.4547 30.7256 77.4735 30.599 77.4675C30.4725 77.4614 30.3483 77.4306 30.2337 77.3767C30.1191 77.3229 30.0163 77.2471 29.9312 77.1537C29.846 77.0603 29.7801 76.9512 29.7374 76.8324V76.8197L29.7066 76.7201C29.6241 76.4806 29.6404 76.2184 29.752 75.991C29.8636 75.7635 30.0614 75.5895 30.3018 75.5071L31.2665 75.1802L35.2354 73.837L35.8203 73.6378C36.0589 73.5581 36.3194 73.5744 36.5461 73.6831C36.7728 73.7919 36.9478 73.9846 37.0338 74.22C37.0727 74.3229 37.0927 74.4319 37.0928 74.5418Z" fill="#0026AC"/>
<path d="M50.0053 75.1777V75.7497L46.0287 74.4576V73.8345L50.0053 75.1777Z" fill="url(#paint6_linear)"/>
<path d="M51.5703 76.7201L51.5344 76.8197C51.4942 76.9386 51.4308 77.0485 51.3479 77.143C51.265 77.2375 51.1642 77.3148 51.0513 77.3705C50.9384 77.4263 50.8155 77.4593 50.6897 77.4678C50.564 77.4762 50.4378 77.4599 50.3183 77.4198H50.2875L44.7998 75.4509C44.6133 75.3847 44.452 75.2623 44.3385 75.1008C44.225 74.9393 44.1647 74.7466 44.1661 74.5495C44.1669 74.439 44.186 74.3295 44.2225 74.2252C44.3101 73.9903 44.4858 73.7985 44.7126 73.6899C44.9394 73.5813 45.1996 73.5645 45.4386 73.6429L46.021 73.8396L49.9899 75.1854L50.9572 75.5122C51.0766 75.5523 51.187 75.6154 51.2819 75.6979C51.3769 75.7804 51.4546 75.8807 51.5106 75.9931C51.5666 76.1055 51.5997 76.2278 51.6082 76.353C51.6167 76.4782 51.6004 76.6038 51.5601 76.7227L51.5703 76.7201Z" fill="#0026AC"/>
<path d="M44.0404 81.3525H38.2705C38.0663 81.3525 37.8706 81.2718 37.7262 81.1281C37.5819 80.9845 37.5008 80.7896 37.5008 80.5864L38.4808 78.4209C38.4808 78.2177 38.5619 78.0228 38.7063 77.8792C38.8506 77.7355 39.0464 77.6548 39.2505 77.6548H42.6755C42.8797 77.6548 43.0754 77.7355 43.2198 77.8792C43.3641 78.0228 43.4452 78.2177 43.4452 78.4209L44.805 80.5864C44.805 80.7887 44.7246 80.9828 44.5813 81.1263C44.4381 81.2699 44.2437 81.3512 44.0404 81.3525Z" fill="#0026AC"/>
<path d="M39.9355 78.5996H39.3659C39.2979 78.5996 39.2326 78.5727 39.1845 78.5248C39.1364 78.4769 39.1094 78.412 39.1094 78.3442C39.1094 78.2765 39.1364 78.2116 39.1845 78.1637C39.2326 78.1158 39.2979 78.0889 39.3659 78.0889H39.9355C40.0035 78.0889 40.0688 78.1158 40.1169 78.1637C40.165 78.2116 40.192 78.2765 40.192 78.3442C40.192 78.412 40.165 78.4769 40.1169 78.5248C40.0688 78.5727 40.0035 78.5996 39.9355 78.5996Z" fill="url(#paint7_linear)"/>
<path d="M41.3491 78.5996H40.7949C40.7269 78.5996 40.6616 78.5727 40.6135 78.5248C40.5654 78.4769 40.5384 78.412 40.5384 78.3442C40.5384 78.2765 40.5654 78.2116 40.6135 78.1637C40.6616 78.1158 40.7269 78.0889 40.7949 78.0889H41.3645C41.4325 78.0889 41.4978 78.1158 41.5459 78.1637C41.594 78.2116 41.6211 78.2765 41.6211 78.3442C41.6211 78.412 41.594 78.4769 41.5459 78.5248C41.4978 78.5727 41.4325 78.5996 41.3645 78.5996H41.3491Z" fill="url(#paint8_linear)"/>
<path d="M42.7576 78.5996H42.188C42.12 78.5996 42.0547 78.5727 42.0066 78.5248C41.9585 78.4769 41.9315 78.412 41.9315 78.3442C41.9315 78.2765 41.9585 78.2116 42.0066 78.1637C42.0547 78.1158 42.12 78.0889 42.188 78.0889H42.7576C42.8256 78.0889 42.8909 78.1158 42.939 78.1637C42.9871 78.2116 43.0142 78.2765 43.0142 78.3442C43.0142 78.412 42.9871 78.4769 42.939 78.5248C42.8909 78.5727 42.8256 78.5996 42.7576 78.5996Z" fill="url(#paint9_linear)"/>
<path d="M39.9355 79.3657H39.3659C39.2979 79.3657 39.2326 79.3388 39.1845 79.2909C39.1364 79.243 39.1094 79.1781 39.1094 79.1103C39.1094 79.0426 39.1364 78.9777 39.1845 78.9298C39.2326 78.8819 39.2979 78.855 39.3659 78.855H39.9355C40.0035 78.855 40.0688 78.8819 40.1169 78.9298C40.165 78.9777 40.192 79.0426 40.192 79.1103C40.192 79.1781 40.165 79.243 40.1169 79.2909C40.0688 79.3388 40.0035 79.3657 39.9355 79.3657Z" fill="url(#paint10_linear)"/>
<path d="M41.3491 79.3657H40.7949C40.7269 79.3657 40.6616 79.3388 40.6135 79.2909C40.5654 79.243 40.5384 79.1781 40.5384 79.1103C40.5384 79.0426 40.5654 78.9777 40.6135 78.9298C40.6616 78.8819 40.7269 78.855 40.7949 78.855H41.3645C41.4325 78.855 41.4978 78.8819 41.5459 78.9298C41.594 78.9777 41.6211 79.0426 41.6211 79.1103C41.6211 79.1781 41.594 79.243 41.5459 79.2909C41.4978 79.3388 41.4325 79.3657 41.3645 79.3657H41.3491Z" fill="url(#paint11_linear)"/>
<path d="M42.7576 79.3657H42.188C42.12 79.3657 42.0547 79.3388 42.0066 79.2909C41.9585 79.243 41.9315 79.1781 41.9315 79.1103C41.9315 79.0426 41.9585 78.9777 42.0066 78.9298C42.0547 78.8819 42.12 78.855 42.188 78.855H42.7576C42.8256 78.855 42.8909 78.8819 42.939 78.9298C42.9871 78.9777 43.0142 79.0426 43.0142 79.1103C43.0142 79.1781 42.9871 79.243 42.939 79.2909C42.8909 79.3388 42.8256 79.3657 42.7576 79.3657Z" fill="url(#paint12_linear)"/>
<path d="M39.9355 80.2878H39.3659C39.2979 80.2878 39.2326 80.2609 39.1845 80.213C39.1364 80.1651 39.1094 80.1001 39.1094 80.0324C39.1127 79.9669 39.1411 79.9052 39.1889 79.86C39.2367 79.8149 39.3001 79.7897 39.3659 79.7898H39.9355C40.0014 79.7897 40.0648 79.8149 40.1125 79.86C40.1603 79.9052 40.1887 79.9669 40.192 80.0324C40.192 80.1001 40.165 80.1651 40.1169 80.213C40.0688 80.2609 40.0035 80.2878 39.9355 80.2878Z" fill="url(#paint13_linear)"/>
<path d="M41.3491 80.2878H40.7949C40.7269 80.2878 40.6616 80.2609 40.6135 80.213C40.5654 80.1651 40.5384 80.1001 40.5384 80.0324C40.5417 79.9669 40.5702 79.9052 40.6179 79.86C40.6657 79.8149 40.7291 79.7897 40.7949 79.7898H41.3645C41.4304 79.7897 41.4938 79.8149 41.5415 79.86C41.5893 79.9052 41.6178 79.9669 41.6211 80.0324C41.6211 80.1001 41.594 80.1651 41.5459 80.213C41.4978 80.2609 41.4325 80.2878 41.3645 80.2878H41.3491Z" fill="url(#paint14_linear)"/>
<path d="M42.7576 80.2878H42.188C42.12 80.2878 42.0547 80.2609 42.0066 80.213C41.9585 80.1651 41.9315 80.1001 41.9315 80.0324C41.9348 79.9669 41.9633 79.9052 42.011 79.86C42.0588 79.8149 42.1222 79.7897 42.188 79.7898H42.7576C42.8235 79.7897 42.8869 79.8149 42.9346 79.86C42.9824 79.9052 43.0109 79.9669 43.0142 80.0324C43.0142 80.1001 42.9871 80.1651 42.939 80.213C42.8909 80.2609 42.8256 80.2878 42.7576 80.2878Z" fill="url(#paint15_linear)"/>
<path d="M63.7131 85.9185C62.7146 85.9185 61.729 85.6935 60.8304 85.2602C59.9318 84.8269 59.1435 84.1966 58.5246 83.4166C57.9057 82.6367 57.4723 81.7274 57.257 80.7569C57.0416 79.7864 57.0499 78.78 57.2812 77.8131L61.5349 60.0344C61.5349 60.0344 63.5053 51.329 69.4394 50.2053L94.6101 50.1287C94.6101 50.1287 99.4205 49.6793 102.453 57.1411C103.194 58.967 109.867 68.3211 112.459 67.2664L127.082 60.7393C127.082 60.7393 128.242 59.4624 129.715 61.0534C131.187 62.6443 134.792 65.0167 129.045 68.865C121.605 73.8498 110.712 77.4735 110.712 77.4735C110.712 77.4735 108.68 78.3954 106.147 76.5516C103.615 74.7079 100.806 72.8309 100.806 72.8309L96.5112 85.9185H63.7131Z" fill="#0026AC"/>
<path d="M129.05 68.865C121.61 73.8498 110.717 77.4735 110.717 77.4735C110.717 77.4735 108.685 78.3954 106.153 76.5516C103.62 74.7079 100.811 72.8309 100.811 72.8309L96.5164 85.9185H63.7131C62.7146 85.9185 61.7291 85.6935 60.8304 85.2602C59.9318 84.8269 59.1435 84.1966 58.5246 83.4166C57.9057 82.6367 57.4723 81.7274 57.257 80.7569C57.0416 79.7864 57.0499 78.78 57.2812 77.8131L61.5349 60.0344C61.5349 60.0344 63.5053 51.329 69.4394 50.2053L94.6102 50.1287C94.6102 50.1287 99.4206 49.6793 102.453 57.1411C103.195 58.967 109.868 68.3211 112.459 67.2664L127.082 60.7393C127.082 60.7393 128.242 59.4624 129.715 61.0534C130.407 61.8041 131.575 62.726 132.024 63.8956C132.509 65.2082 132.085 66.8298 129.05 68.865Z" fill="url(#paint16_linear)"/>
<path d="M86.7493 80.2161C87.9556 79.8888 89.1929 79.6876 90.4412 79.616C91.6906 79.5904 92.981 79.8458 94.0047 80.5583C93.9535 80.6933 93.8628 80.81 93.7444 80.8933C93.626 80.9766 93.4852 81.0227 93.3402 81.0256C94.3972 81.0639 95.3927 81.4827 96.3676 81.8913L99.1435 83.066C99.2238 83.0937 99.2972 83.1381 99.359 83.1962C99.5745 83.4312 99.2846 83.8142 98.9716 83.8908C98.6586 83.9675 98.3097 83.9087 98.0326 84.0722C98.2398 84.0218 98.4568 84.0269 98.6613 84.087C98.8659 84.1471 99.0509 84.2601 99.1974 84.4143C97.3091 85.7831 94.8026 85.8495 92.4679 85.8546C90.2359 85.8546 88.0039 85.8546 85.7744 85.7423C85.6333 85.7558 85.491 85.7401 85.3563 85.6961C85.2216 85.6522 85.0976 85.5809 84.9919 85.4869C84.8536 85.2567 84.8095 84.9824 84.8688 84.7208C84.9817 83.6125 85.0407 82.4863 85.21 81.3857C85.346 80.5353 85.836 80.2161 86.7493 80.2161Z" fill="url(#paint17_linear)"/>
<path d="M127.973 60.6857L129.184 59.9631C129.566 59.7344 130.019 59.6526 130.458 59.733C130.897 59.8134 131.291 60.0505 131.567 60.3997C132.319 61.3471 133.16 62.7287 133.035 64.054C132.811 66.3958 130.469 66.5107 130.469 66.5107C130.469 66.5107 127.488 63.8063 127.973 60.6857Z" fill="#0026AC"/>
<path d="M132.493 59.2173L137.07 56.8143C137.072 57.159 136.972 57.4966 136.782 57.7853C136.593 58.074 136.323 58.3011 136.005 58.4385C137.84 58.0426 139.723 57.6289 141.288 56.5947C141.619 56.3751 142.037 56.1197 142.383 56.3189C142.166 56.9782 141.785 57.5721 141.275 58.0452L142.045 57.44C142.15 57.6519 142.011 57.8971 141.873 58.0886C141.442 58.683 140.962 59.2407 140.439 59.7562C140.662 59.6235 140.918 59.5546 141.178 59.557C141.011 59.9058 140.814 60.239 140.588 60.5529C139.587 61.9351 138.229 63.0213 136.658 63.6959C135.087 64.3704 133.361 64.608 131.665 64.3834C131.454 64.3636 131.249 64.3038 131.062 64.2072C130.855 64.074 130.687 63.8891 130.574 63.6709C130.328 63.2299 130.191 62.7364 130.177 62.232C130.162 61.7276 130.269 61.227 130.49 60.7725C130.846 60.0652 131.818 59.5774 132.493 59.2173Z" fill="url(#paint18_linear)"/>
<path d="M77.0797 51.7096C78.4625 52.846 79.9197 53.9262 81.5797 54.6055C83.2396 55.2848 85.1278 55.535 86.8339 54.986C89.1429 54.2429 90.7361 52.2152 92.16 50.2719C90.7746 50.0778 89.5534 49.1993 88.7119 48.0859C87.8704 46.9725 87.3701 45.6472 86.993 44.3065C86.7775 43.5404 86.5851 42.7309 86.0745 42.1154C85.4793 41.403 84.5352 41.0582 83.6244 40.9101C82.9028 40.7598 82.1528 40.8228 81.4668 41.0914C80.0403 41.7375 79.5837 43.474 78.9628 44.9066C78.32 46.3823 77.3561 47.6976 76.1407 48.7576C75.6558 49.1815 74.6552 49.5543 74.9426 50.1927C75.1529 50.6677 76.6487 51.3546 77.0797 51.7096Z" fill="url(#paint19_linear)"/>
<path d="M78.9628 44.9062C78.9628 44.9062 79.9531 49.2807 83.5244 49.2143C87.0956 49.1479 87.3727 45.4783 87.3727 45.4783L78.9628 44.9062Z" fill="url(#paint20_linear)"/>
<path d="M76.9694 41.2905C77.875 43.1853 79.0218 44.9831 80.6253 46.1425C89.8613 52.8766 92.2858 30.3838 91.9856 29.3265C91.6084 27.9859 91.2159 26.6043 90.377 25.5675C89.7252 24.8082 88.9036 24.2117 87.9782 23.8259C85.381 22.6514 82.4403 22.4696 79.7171 23.3152C78.8428 23.5583 78.0234 23.9657 77.3029 24.5154C76.1587 25.4322 75.3813 26.8546 74.9426 28.3459C73.6136 32.8302 75.0837 37.3604 76.9694 41.2905Z" fill="url(#paint21_linear)"/>
<path d="M82.4315 25.1816C85.2869 26.5325 85.8975 30.7461 88.812 31.9668C89.4351 32.2073 90.0961 32.3362 90.7644 32.3473C91.6647 32.3826 92.5656 32.2967 93.4428 32.0919C93.1863 29.3952 93.8944 26.5811 93.0349 24.0095C92.4038 22.1198 90.8567 20.705 89.1866 19.6248C88.127 18.943 85.6256 18.4399 83.3807 18.4629C81.5034 18.4607 79.6805 19.0907 78.2085 20.2505C76.7744 21.4252 75.8764 23.3404 76.2433 25.1535C77.3747 24.8573 78.4112 24.9288 79.5529 24.8982C80.5817 24.888 81.4334 24.7092 82.4315 25.1816Z" fill="#3F3D56"/>
<path d="M71.4842 65.2644L68.3568 77.6599L79.8094 78.352L71.4842 65.2644Z" fill="url(#paint22_linear)"/>
<path d="M83.9503 79.5495C84.489 80.3462 84.6327 81.3575 84.566 82.3177C84.458 83.2744 84.2866 84.2231 84.0529 85.1573C83.999 85.4127 83.9785 85.7421 84.2017 85.88C84.3075 85.9239 84.424 85.9354 84.5364 85.9131C84.6488 85.8908 84.752 85.8358 84.8328 85.7549C85.6487 85.1318 85.8437 84.0133 85.9822 82.9995C86.0822 82.2615 86.172 81.4673 85.8436 80.8084C85.5614 80.2364 85.015 79.8482 84.4916 79.4831C83.7886 78.9953 83.0344 78.4616 82.1826 78.2854C82.8445 78.6557 83.5013 78.8855 83.9503 79.5495Z" fill="#0026AC"/>
<path d="M83.9503 79.5495C84.489 80.3462 84.6327 81.3575 84.566 82.3177C84.458 83.2744 84.2866 84.2231 84.0529 85.1573C83.999 85.4127 83.9785 85.7421 84.2017 85.88C84.3075 85.9239 84.424 85.9354 84.5364 85.9131C84.6488 85.8908 84.752 85.8358 84.8328 85.7549C85.6487 85.1318 85.8437 84.0133 85.9822 82.9995C86.0822 82.2615 86.172 81.4673 85.8436 80.8084C85.5614 80.2364 85.015 79.8482 84.4916 79.4831C83.7886 78.9953 83.0344 78.4616 82.1826 78.2854C82.8445 78.6557 83.5013 78.8855 83.9503 79.5495Z" fill="url(#paint23_linear)"/>
<path d="M138.456 33.627C146.872 33.627 153.695 26.8357 153.695 18.4582C153.695 10.0806 146.872 3.28931 138.456 3.28931C130.039 3.28931 123.216 10.0806 123.216 18.4582C123.216 26.8357 130.039 33.627 138.456 33.627Z" fill="#0026AC"/>
<path d="M138.456 29.6483C144.665 29.6483 149.698 24.6382 149.698 18.458C149.698 12.2779 144.665 7.26782 138.456 7.26782C132.247 7.26782 127.213 12.2779 127.213 18.458C127.213 24.6382 132.247 29.6483 138.456 29.6483Z" fill="white"/>
<path d="M145.17 19.9416H137.819C137.658 19.9416 137.502 19.878 137.388 19.7647C137.273 19.6513 137.207 19.4974 137.206 19.3364C137.205 19.2562 137.221 19.1767 137.251 19.1024C137.281 19.0281 137.326 18.9605 137.382 18.9033C137.439 18.8462 137.506 18.8006 137.58 18.7694C137.654 18.7381 137.734 18.7216 137.814 18.7209H145.17C145.332 18.7209 145.488 18.7852 145.603 18.8997C145.718 19.0142 145.783 19.1694 145.783 19.3313C145.784 19.4923 145.72 19.647 145.607 19.7618C145.494 19.8766 145.339 19.9421 145.177 19.9442L145.17 19.9416Z" fill="#3F3D56"/>
<path d="M138.433 12.005V19.334C138.431 19.4948 138.366 19.6486 138.252 19.7623C138.138 19.876 137.983 19.9405 137.822 19.9418C137.66 19.9418 137.505 19.8782 137.39 19.7649C137.275 19.6515 137.21 19.4976 137.209 19.3366V12.005C137.209 11.8436 137.274 11.689 137.389 11.5751C137.504 11.4612 137.66 11.3972 137.822 11.3972C137.983 11.3986 138.138 11.463 138.252 11.5767C138.366 11.6904 138.431 11.8442 138.433 12.005Z" fill="#3F3D56"/>
<path d="M49.6207 34.9293H0.0027771V0.00268555H49.6207V34.9293ZM2.61708 32.3246H47.0013V2.60488H2.61708V32.3246Z" fill="#0026AC"/>
<path d="M15.9629 10.4316H11.9478V26.5019H15.9629V10.4316Z" fill="#0026AC"/>
<path d="M22.7924 19.1755H18.7773V26.502H22.7924V19.1755Z" fill="#0026AC"/>
<path d="M29.6142 14.5686H25.5991V26.5019H29.6142V14.5686Z" fill="#0026AC"/>
<path d="M36.4412 10.4316H32.4261V26.5019H36.4412V10.4316Z" fill="#0026AC"/>
<path d="M39.1196 26.502H10.0775V27.3013H39.1196V26.502Z" fill="#0026AC"/>
<path d="M129.05 68.8651C121.61 73.8499 110.717 77.4735 110.717 77.4735C110.717 77.4735 108.685 78.3954 106.153 76.5517C103.62 74.7079 100.811 72.8309 100.811 72.8309C100.811 72.8309 101.753 69.1205 99.1512 63.7041C99.1512 63.7041 106.517 73.1119 108.11 73.5868C115.358 75.7473 130.579 63.6709 130.579 63.6709L132.021 63.8956C132.509 65.2082 132.085 66.8298 129.05 68.8651Z" fill="url(#paint24_linear)"/>
<path d="M72.8645 50.1235L76.151 48.7573C76.151 48.7573 83.0241 57.5675 87.07 54.212C91.1159 50.8565 90.9696 49.2144 90.9696 49.2144L92.6065 50.1848C92.6065 50.1848 91.788 56.1783 86.3465 56.3137C80.9049 56.449 72.8645 50.1235 72.8645 50.1235Z" fill="#0026AC"/>
<path d="M72.8645 50.1235L76.151 48.7573C76.151 48.7573 83.0241 57.5675 87.07 54.212C91.1159 50.8565 90.9696 49.2144 90.9696 49.2144L92.6065 50.1848C92.6065 50.1848 90.4514 56.9317 85.0098 57.0798C79.5683 57.2279 72.8645 50.1235 72.8645 50.1235Z" fill="url(#paint25_linear)"/>
</g>
<defs>
<linearGradient id="paint0_linear" x1="73.1339" y1="37.442" x2="92.119" y2="37.442" gradientUnits="userSpaceOnUse">
<stop stop-color="#ECC4D7"/>
<stop offset="0.42" stop-color="#EFD4D1"/>
<stop offset="1" stop-color="#F2EAC9"/>
</linearGradient>
<linearGradient id="paint1_linear" x1="50.6672" y1="118.769" x2="-3.35242" y2="126.897" gradientUnits="userSpaceOnUse">
<stop stop-opacity="0"/>
<stop offset="0.91" stop-opacity="0.8"/>
<stop offset="1"/>
</linearGradient>
<linearGradient id="paint2_linear" x1="41865.8" y1="-879.826" x2="41867.2" y2="-353.375" gradientUnits="userSpaceOnUse">
<stop stop-opacity="0"/>
<stop offset="0.91" stop-opacity="0.8"/>
<stop offset="1"/>
</linearGradient>
<linearGradient id="paint3_linear" x1="42.1291" y1="92.2107" x2="42.9883" y2="74.8581" gradientUnits="userSpaceOnUse">
<stop/>
<stop offset="0.98" stop-opacity="0"/>
</linearGradient>
<linearGradient id="paint4_linear" x1="3690.94" y1="1811.32" x2="3693.15" y2="1696.54" gradientUnits="userSpaceOnUse">
<stop/>
<stop offset="0.98" stop-opacity="0"/>
</linearGradient>
<linearGradient id="paint5_linear" x1="33.1573" y1="72.4325" x2="33.292" y2="75.8059" gradientUnits="userSpaceOnUse">
<stop stop-color="#68E1FD"/>
<stop offset="0.34" stop-color="#68D4F7"/>
<stop offset="1" stop-color="#69B9EB"/>
</linearGradient>
<linearGradient id="paint6_linear" x1="788.503" y1="943.222" x2="789.095" y2="973.234" gradientUnits="userSpaceOnUse">
<stop stop-color="#68E1FD"/>
<stop offset="0.34" stop-color="#68D4F7"/>
<stop offset="1" stop-color="#69B9EB"/>
</linearGradient>
<linearGradient id="paint7_linear" x1="281.041" y1="274.52" x2="275.909" y2="292.975" gradientUnits="userSpaceOnUse">
<stop/>
<stop offset="0.98" stop-opacity="0"/>
</linearGradient>
<linearGradient id="paint8_linear" x1="286.941" y1="275.766" x2="281.808" y2="294.217" gradientUnits="userSpaceOnUse">
<stop/>
<stop offset="0.98" stop-opacity="0"/>
</linearGradient>
<linearGradient id="paint9_linear" x1="292.708" y1="276.977" x2="287.576" y2="295.432" gradientUnits="userSpaceOnUse">
<stop/>
<stop offset="0.98" stop-opacity="0"/>
</linearGradient>
<linearGradient id="paint10_linear" x1="282.459" y1="275.668" x2="277.332" y2="294.118" gradientUnits="userSpaceOnUse">
<stop/>
<stop offset="0.98" stop-opacity="0"/>
</linearGradient>
<linearGradient id="paint11_linear" x1="288.359" y1="276.919" x2="283.228" y2="295.373" gradientUnits="userSpaceOnUse">
<stop/>
<stop offset="0.98" stop-opacity="0"/>
</linearGradient>
<linearGradient id="paint12_linear" x1="294.126" y1="278.124" x2="288.995" y2="296.578" gradientUnits="userSpaceOnUse">
<stop/>
<stop offset="0.98" stop-opacity="0"/>
</linearGradient>
<linearGradient id="paint13_linear" x1="284.181" y1="271.054" x2="279.285" y2="289.112" gradientUnits="userSpaceOnUse">
<stop/>
<stop offset="0.98" stop-opacity="0"/>
</linearGradient>
<linearGradient id="paint14_linear" x1="290.08" y1="272.269" x2="285.184" y2="290.327" gradientUnits="userSpaceOnUse">
<stop/>
<stop offset="0.98" stop-opacity="0"/>
</linearGradient>
<linearGradient id="paint15_linear" x1="295.848" y1="273.455" x2="290.951" y2="291.509" gradientUnits="userSpaceOnUse">
<stop/>
<stop offset="0.98" stop-opacity="0"/>
</linearGradient>
<linearGradient id="paint16_linear" x1="27666.3" y1="12163.5" x2="27810.7" y2="6587.57" gradientUnits="userSpaceOnUse">
<stop stop-opacity="0"/>
<stop offset="0.91" stop-opacity="0.8"/>
<stop offset="1"/>
</linearGradient>
<linearGradient id="paint17_linear" x1="6125.88" y1="3185.32" x2="6955.64" y2="3185.32" gradientUnits="userSpaceOnUse">
<stop stop-color="#ECC4D7"/>
<stop offset="0.42" stop-color="#EFD4D1"/>
<stop offset="1" stop-color="#F2EAC9"/>
</linearGradient>
<linearGradient id="paint18_linear" x1="7341.97" y1="3426.28" x2="7922.83" y2="3426.28" gradientUnits="userSpaceOnUse">
<stop stop-color="#ECC4D7"/>
<stop offset="0.42" stop-color="#EFD4D1"/>
<stop offset="1" stop-color="#F2EAC9"/>
</linearGradient>
<linearGradient id="paint19_linear" x1="7087.76" y1="4942.6" x2="7146.83" y2="5723.65" gradientUnits="userSpaceOnUse">
<stop stop-color="#ECC4D7"/>
<stop offset="0.42" stop-color="#EFD4D1"/>
<stop offset="1" stop-color="#F2EAC9"/>
</linearGradient>
<linearGradient id="paint20_linear" x1="82.5341" y1="46.9696" x2="73.8597" y2="67.9587" gradientUnits="userSpaceOnUse">
<stop stop-color="#ECC4D7"/>
<stop offset="0.27" stop-color="#ECC6D6"/>
<stop offset="0.37" stop-color="#EECDD4"/>
<stop offset="0.42" stop-color="#EFD4D1"/>
<stop offset="1" stop-color="#F2EAC9"/>
</linearGradient>
<linearGradient id="paint21_linear" x1="7209.51" y1="7327.29" x2="8056.49" y2="8551.45" gradientUnits="userSpaceOnUse">
<stop stop-color="#ECC4D7"/>
<stop offset="0.42" stop-color="#EFD4D1"/>
<stop offset="1" stop-color="#F2EAC9"/>
</linearGradient>
<linearGradient id="paint22_linear" x1="3416.32" y1="-4038.55" x2="2695.34" y2="-3652.76" gradientUnits="userSpaceOnUse">
<stop stop-opacity="0"/>
<stop offset="0.91" stop-opacity="0.8"/>
<stop offset="1"/>
</linearGradient>
<linearGradient id="paint23_linear" x1="1415.69" y1="2253.13" x2="1302.86" y2="2226.45" gradientUnits="userSpaceOnUse">
<stop stop-opacity="0"/>
<stop offset="0.91" stop-opacity="0.8"/>
<stop offset="1"/>
</linearGradient>
<linearGradient id="paint24_linear" x1="15426.4" y1="4640.99" x2="5196.29" y2="2512" gradientUnits="userSpaceOnUse">
<stop stop-opacity="0"/>
<stop offset="0.91" stop-opacity="0.8"/>
<stop offset="1"/>
</linearGradient>
<linearGradient id="paint25_linear" x1="6442.03" y1="3437.59" x2="6435.46" y2="2852.85" gradientUnits="userSpaceOnUse">
<stop stop-opacity="0"/>
<stop offset="0.91" stop-opacity="0.8"/>
<stop offset="1"/>
</linearGradient>
<clipPath id="clip0">
<rect width="167" height="152" fill="white"/>
</clipPath>
</defs>
</svg>
