<svg xmlns="http://www.w3.org/2000/svg" width="167" height="152" fill="none">
  <g clip-path="url(#clip0)">
    <path fill="#0392F7" d="M43.45 73.93h-5.18v3.2h5.18v-3.2z"/>
    <path fill="#0392F7" d="M8.31 139.18c-1.28.37-2.88 1.34-2.42 2.6.21.6.84.93 1.43 1.2a34.37 34.37 0 0 0 15.73 2.93c-3.4.42-6.57 1.92-9.04 4.27 7.72 1.69 15.7 1.73 23.6 1.76 20.1.08 40.2.08 60.29.02 12.4-.04 24.82-.1 37.22-.64 8.4-.36 16.88-.95 24.91-3.4 3.16-.95 6.73-2.83 6.97-6.13l-7.65-2.25c-.5-.15-1.06-.35-1.25-.83-.36-.9.85-1.67.96-2.63.14-1.28-1.54-1.86-2.8-1.98-14.82-1.37-29.73.18-44.6.77-18.45.71-36.9-.06-55.32-1.2a137.53 137.53 0 0 0-48.03 5.5z" opacity=".18"/>
    <path fill="#3F3D56" d="M68.38 30.79c-.51 4.5 1.25 9.31-.51 13.5-.46 1.09-1.08 2.55-.14 3.28a2 2 0 0 0 1.07.34 5.93 5.93 0 0 0 4.52-1.55c.1.66.81 1.07 1.48 1.08.67.02 1.3-.25 1.94-.45 3.25-1.05 6.78-.43 10.15.1 1.57.26 3.31.45 4.62-.44a9.8 9.8 0 0 0 8.32-.1c-.36-1.42-1.69-2.4-2.3-3.74a8.18 8.18 0 0 1-.52-3.3l-.12-6.7c-.05-2.65-.13-5.43-1.44-7.75-1.16-2.04-2.7-7.94-12.64-7.94-11.37 0-14.03 10.18-14.43 13.67z"/>
    <path fill="url(#paint0_linear)" d="M73.22 36.67a4.41 4.41 0 0 0 2.48 2.75 11 11 0 0 0 3.72.84c3.56.33 7.3.18 10.48-1.46 1.23-.63 2.48-1.82 2.17-3.16a1.07 1.07 0 0 0-.61-.8 1.43 1.43 0 0 0-.66-.02c-3.5.36-7 .84-10.53.71a17.78 17.78 0 0 1-5.07-.72c-.6-.2-.84-.55-1.47-.13-.63.43-.68 1.33-.51 1.99z"/>
    <path fill="#3F3D56" d="M73.2 25.61a3.17 3.17 0 0 0-1.1 1.8c-.14.69-.18 1.4-.1 2.11.02.7.15 1.37.37 2.03.3.68.67 1.32 1.12 1.9L74.6 35c.3-.82.83-1.54 1.12-2.34.19-.6.34-1.22.44-1.84.24-1.05.65-2.07.77-3.15.08-.69.22-2.45-.68-2.64a4.1 4.1 0 0 0-3.04.6z"/>
    <path fill="#0392F7" d="M152.07 90.85l-2.58 19.95-.62 4.7-2.72 20.81a4.93 4.93 0 0 1-4.96 4.93H35.4a4.97 4.97 0 0 1-4.95-4.93l-2.56-20.81-.58-4.7-2.5-19.95a4.91 4.91 0 0 1 4.96-4.93h117.36a4.97 4.97 0 0 1 4.95 4.93z"/>
    <path fill="url(#paint1_linear)" d="M152.07 90.85l-2.58 19.95-.62 4.7-2.72 20.81a4.93 4.93 0 0 1-4.96 4.93H35.4a4.97 4.97 0 0 1-4.95-4.93l-2.56-20.81-.58-4.7-2.5-19.95a4.91 4.91 0 0 1 4.96-4.93h117.36a4.97 4.97 0 0 1 4.95 4.93z"/>
    <path fill="#0392F7" d="M152.07 90.85l-2.58 19.95-.62 4.7-2.72 20.81a4.93 4.93 0 0 1-4.96 4.93H52.15a4.97 4.97 0 0 1-4.94-4.93l-2.57-20.81-.58-4.7-2.47-19.95a4.92 4.92 0 0 1 4.95-4.93h100.57a4.98 4.98 0 0 1 4.96 4.93z"/>
    <path fill="url(#paint2_linear)" d="M149.48 110.8l-.61 4.7H27.85l-.58-4.7h122.2z"/>
    <path fill="#0392F7" d="M49.77 83.03v2.89H32.91v-2.89a5.89 5.89 0 0 1 5.92-5.9h5.02a5.94 5.94 0 0 1 5.93 5.9z"/>
    <path fill="url(#paint3_linear)" d="M49.77 83.03v2.89H35.24s-.23-1.87.3-4.76c.54-2.88 4.11-4.03 4.11-4.03v-3.2h3.8v3.2h.42a5.94 5.94 0 0 1 5.9 5.9z"/>
    <path fill="#0392F7" d="M50 72.7v2.48l-1.42-.48-2.55-.87v-.97h-10.8v.97l-1.86.63-2.1.71V72.7a3.95 3.95 0 0 1 3.98-3.97h10.77a4 4 0 0 1 3.99 3.97z"/>
    <path fill="url(#paint4_linear)" d="M48.58 74.18v.52l-2.55-.87v-.97h-10.8v.97l-1.86.63v-.28a3.2 3.2 0 0 1 3.23-3.21h8.74a3.24 3.24 0 0 1 3.23 3.21z"/>
    <path fill="url(#paint5_linear)" d="M35.24 73.83v.63l-3.98 1.29v-.57l3.98-1.35z"/>
    <path fill="#0392F7" d="M37.1 74.54a.95.95 0 0 1-.65.9l-5.48 1.97a.97.97 0 0 1-1.23-.58v-.01l-.03-.1a.95.95 0 0 1 .6-1.21l.96-.33 3.97-1.34.58-.2a.97.97 0 0 1 1.27.9z"/>
    <path fill="url(#paint6_linear)" d="M50 75.18v.57l-3.97-1.3v-.62L50 75.18z"/>
    <path fill="#0392F7" d="M51.57 76.72l-.04.1a.95.95 0 0 1-.84.65c-.13 0-.25-.01-.37-.05h-.03l-5.49-1.97a.95.95 0 0 1-.09-1.76c.23-.1.49-.13.73-.05l.58.2L50 75.19l.97.32a.96.96 0 0 1 .65.84c0 .13-.01.25-.05.37h.01zM44.04 81.35h-5.77a.77.77 0 0 1-.77-.76l.98-2.17a.76.76 0 0 1 .77-.77h3.43a.77.77 0 0 1 .77.77l1.35 2.17a.76.76 0 0 1-.76.76z"/>
    <path fill="url(#paint7_linear)" d="M39.94 78.6h-.57a.26.26 0 0 1-.26-.26.25.25 0 0 1 .26-.25h.57a.26.26 0 0 1 .25.25.25.25 0 0 1-.25.26z"/>
    <path fill="url(#paint8_linear)" d="M41.35 78.6h-.56a.26.26 0 0 1-.25-.26.25.25 0 0 1 .25-.25h.57a.26.26 0 0 1 .26.25.25.25 0 0 1-.26.26h-.01z"/>
    <path fill="url(#paint9_linear)" d="M42.76 78.6h-.57a.26.26 0 0 1-.26-.26.25.25 0 0 1 .26-.25h.57a.26.26 0 0 1 .25.25.25.25 0 0 1-.25.26z"/>
    <path fill="url(#paint10_linear)" d="M39.94 79.37h-.57a.26.26 0 0 1-.26-.26.25.25 0 0 1 .26-.25h.57a.26.26 0 0 1 .25.25.25.25 0 0 1-.25.26z"/>
    <path fill="url(#paint11_linear)" d="M41.35 79.37h-.56a.26.26 0 0 1-.25-.26.25.25 0 0 1 .25-.25h.57a.26.26 0 0 1 .26.25.25.25 0 0 1-.26.26h-.01z"/>
    <path fill="url(#paint12_linear)" d="M42.76 79.37h-.57a.26.26 0 0 1-.26-.26.25.25 0 0 1 .26-.25h.57a.26.26 0 0 1 .25.25.25.25 0 0 1-.25.26z"/>
    <path fill="url(#paint13_linear)" d="M39.94 80.29h-.57a.26.26 0 0 1-.26-.26.25.25 0 0 1 .26-.24h.57a.26.26 0 0 1 .25.24.25.25 0 0 1-.25.26z"/>
    <path fill="url(#paint14_linear)" d="M41.35 80.29h-.56a.26.26 0 0 1-.25-.26.26.26 0 0 1 .25-.24h.57a.26.26 0 0 1 .26.24.26.26 0 0 1-.26.26h-.01z"/>
    <path fill="url(#paint15_linear)" d="M42.76 80.29h-.57a.26.26 0 0 1-.26-.26.26.26 0 0 1 .26-.24h.57a.26.26 0 0 1 .25.24.26.26 0 0 1-.25.26z"/>
    <path fill="#0392F7" d="M63.71 85.92a6.64 6.64 0 0 1-6.45-5.16c-.22-.97-.21-1.98.02-2.95l4.25-17.78s1.98-8.7 7.9-9.82l25.18-.08s4.81-.45 7.84 7.01c.74 1.83 7.42 11.18 10 10.13l14.63-6.53s1.16-1.28 2.64.31c1.47 1.6 5.07 3.97-.68 7.81-7.43 4.99-18.33 8.61-18.33 8.61s-2.03.93-4.56-.92c-2.54-1.84-5.34-3.72-5.34-3.72l-4.3 13.09h-32.8z"/>
    <path fill="url(#paint16_linear)" d="M129.05 68.86c-7.44 4.99-18.33 8.61-18.33 8.61s-2.03.93-4.57-.92c-2.53-1.84-5.34-3.72-5.34-3.72l-4.3 13.09h-32.8a6.64 6.64 0 0 1-6.45-5.16c-.22-.97-.21-1.98.02-2.95l4.25-17.78s1.98-8.7 7.9-9.82l25.18-.08s4.81-.45 7.84 7.01c.74 1.83 7.42 11.18 10 10.13l14.63-6.53s1.16-1.28 2.64.31c.69.75 1.85 1.68 2.3 2.85.49 1.3.06 2.93-2.97 4.96z"/>
    <path fill="url(#paint17_linear)" d="M86.75 80.22c1.2-.33 2.44-.53 3.7-.6a6.02 6.02 0 0 1 3.55.94.72.72 0 0 1-.66.47c1.06.03 2.05.45 3.03.86l2.77 1.18a.6.6 0 0 1 .22.13c.21.23-.08.61-.39.7-.31.07-.66 0-.94.17a1.21 1.21 0 0 1 1.17.34c-1.9 1.37-4.4 1.44-6.73 1.44-2.23 0-4.47 0-6.7-.1a1.03 1.03 0 0 1-.78-.26c-.14-.23-.18-.5-.12-.77.11-1.1.17-2.23.34-3.33.14-.85.63-1.17 1.54-1.17z"/>
    <path fill="#0392F7" d="M127.97 60.69l1.21-.73a1.84 1.84 0 0 1 2.39.44c.75.95 1.59 2.33 1.47 3.65-.23 2.35-2.57 2.46-2.57 2.46s-2.98-2.7-2.5-5.82z"/>
    <path fill="url(#paint18_linear)" d="M132.5 59.22l4.57-2.4a1.75 1.75 0 0 1-1.06 1.62c1.83-.4 3.71-.81 5.28-1.85.33-.21.75-.47 1.1-.27a4.1 4.1 0 0 1-1.11 1.73l.76-.61c.11.21-.03.46-.17.65-.43.6-.9 1.15-1.43 1.67.22-.14.48-.2.74-.2-.17.35-.37.68-.6 1a9.46 9.46 0 0 1-8.92 3.82 1.65 1.65 0 0 1-.6-.17 1.4 1.4 0 0 1-.49-.54 3.13 3.13 0 0 1-.08-2.9c.36-.7 1.33-1.2 2-1.55z"/>
    <path fill="url(#paint19_linear)" d="M77.08 51.71a17.96 17.96 0 0 0 4.5 2.9c1.66.67 3.55.92 5.25.38 2.31-.75 3.9-2.77 5.33-4.72a5.4 5.4 0 0 1-3.45-2.18A11.21 11.21 0 0 1 87 44.3c-.21-.77-.4-1.58-.92-2.2a3.97 3.97 0 0 0-2.45-1.2 3.8 3.8 0 0 0-2.15.18c-1.43.65-1.89 2.38-2.5 3.82-.65 1.47-1.61 2.79-2.83 3.85-.48.42-1.48.8-1.2 1.43.21.48 1.7 1.16 2.14 1.52z"/>
    <path fill="url(#paint20_linear)" d="M78.96 44.9s1 4.38 4.56 4.31c3.58-.06 3.85-3.73 3.85-3.73l-8.4-.57z"/>
    <path fill="url(#paint21_linear)" d="M76.97 41.3c.9 1.89 2.05 3.68 3.66 4.84 9.23 6.74 11.66-15.76 11.36-16.81-.38-1.34-.77-2.73-1.61-3.76a6.41 6.41 0 0 0-2.4-1.74 11.66 11.66 0 0 0-8.26-.51c-.88.24-1.7.65-2.42 1.2a7.65 7.65 0 0 0-2.36 3.83c-1.33 4.48.14 9.01 2.03 12.94z"/>
    <path fill="#3F3D56" d="M82.43 25.18c2.86 1.35 3.47 5.57 6.38 6.79.63.24 1.29.37 1.95.38.9.03 1.8-.05 2.68-.26-.25-2.7.45-5.5-.4-8.08-.64-1.89-2.18-3.3-3.85-4.39-1.06-.68-3.56-1.18-5.8-1.16-1.89 0-3.71.63-5.18 1.79-1.44 1.18-2.33 3.09-1.97 4.9 1.13-.3 2.17-.22 3.31-.25 1.03-.01 1.88-.2 2.88.28z"/>
    <path fill="url(#paint22_linear)" d="M71.48 65.26l-3.12 12.4 11.45.7-8.33-13.1z"/>
    <path fill="#0392F7" d="M83.95 79.55c.54.8.68 1.8.62 2.77-.11.95-.28 1.9-.52 2.84-.05.25-.07.58.15.72a.58.58 0 0 0 .63-.13c.82-.62 1.01-1.74 1.15-2.75.1-.74.2-1.53-.14-2.2a3.83 3.83 0 0 0-1.35-1.32c-.7-.48-1.46-1.02-2.3-1.2.65.38 1.31.6 1.76 1.27z"/>
    <path fill="url(#paint23_linear)" d="M83.95 79.55c.54.8.68 1.8.62 2.77-.11.95-.28 1.9-.52 2.84-.05.25-.07.58.15.72a.58.58 0 0 0 .63-.13c.82-.62 1.01-1.74 1.15-2.75.1-.74.2-1.53-.14-2.2a3.83 3.83 0 0 0-1.35-1.32c-.7-.48-1.46-1.02-2.3-1.2.65.38 1.31.6 1.76 1.27z"/>
    <path fill="#0392F7" d="M138.46 33.63a15.2 15.2 0 0 0 15.23-15.17 15.2 15.2 0 0 0-15.23-15.17 15.2 15.2 0 0 0-15.24 15.17 15.2 15.2 0 0 0 15.24 15.17z"/>
    <path fill="#fff" d="M138.46 29.65c6.2 0 11.24-5.01 11.24-11.2 0-6.17-5.03-11.18-11.24-11.18s-11.25 5-11.25 11.19c0 6.18 5.04 11.19 11.25 11.19z"/>
    <path fill="#3F3D56" d="M145.17 19.94h-7.35a.61.61 0 0 1-.57-.84.61.61 0 0 1 .56-.38h7.36a.61.61 0 0 1 .61.61.6.6 0 0 1-.6.61h-.01z"/>
    <path fill="#3F3D56" d="M138.43 12v7.33a.62.62 0 0 1-.6.61.62.62 0 0 1-.62-.6V12a.62.62 0 0 1 .61-.6.62.62 0 0 1 .61.6z"/>
    <path fill="#0392F7" d="M49.62 34.93H0V0h49.62v34.93zm-47-2.6H47V2.6H2.62v29.72z"/>
    <path fill="#0392F7" d="M15.96 10.43h-4.01V26.5h4.01V10.43zM22.8 19.18h-4.02v7.32h4.01v-7.32zM29.61 14.57H25.6V26.5h4.01V14.57zM36.44 10.43h-4.01V26.5h4.01V10.43zM39.12 26.5H10.08v.8h29.04v-.8z"/>
    <path fill="url(#paint24_linear)" d="M129.05 68.87c-7.44 4.98-18.33 8.6-18.33 8.6s-2.03.93-4.57-.92c-2.53-1.84-5.34-3.72-5.34-3.72s.94-3.7-1.66-9.13c0 0 7.37 9.41 8.96 9.89 7.25 2.16 22.47-9.92 22.47-9.92l1.44.23c.49 1.3.06 2.93-2.97 4.97z"/>
    <path fill="#0392F7" d="M72.86 50.12l3.3-1.36s6.86 8.8 10.91 5.45c4.05-3.35 3.9-5 3.9-5l1.64.97s-.82 6-6.26 6.13c-5.45.14-13.49-6.19-13.49-6.19z"/>
    <path fill="url(#paint25_linear)" d="M72.86 50.12l3.3-1.36s6.86 8.8 10.91 5.45c4.05-3.35 3.9-5 3.9-5l1.64.97s-2.16 6.75-7.6 6.9c-5.44.15-12.15-6.96-12.15-6.96z"/>
  </g>
  <defs>
    <linearGradient id="paint0_linear" x1="73.13" x2="92.12" y1="37.44" y2="37.44" gradientUnits="userSpaceOnUse">
      <stop stop-color="#ECC4D7"/>
      <stop offset=".42" stop-color="#EFD4D1"/>
      <stop offset="1" stop-color="#F2EAC9"/>
    </linearGradient>
    <linearGradient id="paint1_linear" x1="50.67" x2="-3.35" y1="118.77" y2="126.9" gradientUnits="userSpaceOnUse">
      <stop stop-opacity="0"/>
      <stop offset=".91" stop-opacity=".8"/>
      <stop offset="1"/>
    </linearGradient>
    <linearGradient id="paint2_linear" x1="41865.8" x2="41867.2" y1="-879.83" y2="-353.38" gradientUnits="userSpaceOnUse">
      <stop stop-opacity="0"/>
      <stop offset=".91" stop-opacity=".8"/>
      <stop offset="1"/>
    </linearGradient>
    <linearGradient id="paint3_linear" x1="42.13" x2="42.99" y1="92.21" y2="74.86" gradientUnits="userSpaceOnUse">
      <stop/>
      <stop offset=".98" stop-opacity="0"/>
    </linearGradient>
    <linearGradient id="paint4_linear" x1="3690.94" x2="3693.15" y1="1811.32" y2="1696.54" gradientUnits="userSpaceOnUse">
      <stop/>
      <stop offset=".98" stop-opacity="0"/>
    </linearGradient>
    <linearGradient id="paint5_linear" x1="33.16" x2="33.29" y1="72.43" y2="75.81" gradientUnits="userSpaceOnUse">
      <stop stop-color="#68E1FD"/>
      <stop offset=".34" stop-color="#68D4F7"/>
      <stop offset="1" stop-color="#69B9EB"/>
    </linearGradient>
    <linearGradient id="paint6_linear" x1="788.5" x2="789.1" y1="943.22" y2="973.23" gradientUnits="userSpaceOnUse">
      <stop stop-color="#68E1FD"/>
      <stop offset=".34" stop-color="#68D4F7"/>
      <stop offset="1" stop-color="#69B9EB"/>
    </linearGradient>
    <linearGradient id="paint7_linear" x1="281.04" x2="275.91" y1="274.52" y2="292.98" gradientUnits="userSpaceOnUse">
      <stop/>
      <stop offset=".98" stop-opacity="0"/>
    </linearGradient>
    <linearGradient id="paint8_linear" x1="286.94" x2="281.81" y1="275.77" y2="294.22" gradientUnits="userSpaceOnUse">
      <stop/>
      <stop offset=".98" stop-opacity="0"/>
    </linearGradient>
    <linearGradient id="paint9_linear" x1="292.71" x2="287.58" y1="276.98" y2="295.43" gradientUnits="userSpaceOnUse">
      <stop/>
      <stop offset=".98" stop-opacity="0"/>
    </linearGradient>
    <linearGradient id="paint10_linear" x1="282.46" x2="277.33" y1="275.67" y2="294.12" gradientUnits="userSpaceOnUse">
      <stop/>
      <stop offset=".98" stop-opacity="0"/>
    </linearGradient>
    <linearGradient id="paint11_linear" x1="288.36" x2="283.23" y1="276.92" y2="295.37" gradientUnits="userSpaceOnUse">
      <stop/>
      <stop offset=".98" stop-opacity="0"/>
    </linearGradient>
    <linearGradient id="paint12_linear" x1="294.13" x2="289" y1="278.12" y2="296.58" gradientUnits="userSpaceOnUse">
      <stop/>
      <stop offset=".98" stop-opacity="0"/>
    </linearGradient>
    <linearGradient id="paint13_linear" x1="284.18" x2="279.29" y1="271.05" y2="289.11" gradientUnits="userSpaceOnUse">
      <stop/>
      <stop offset=".98" stop-opacity="0"/>
    </linearGradient>
    <linearGradient id="paint14_linear" x1="290.08" x2="285.18" y1="272.27" y2="290.33" gradientUnits="userSpaceOnUse">
      <stop/>
      <stop offset=".98" stop-opacity="0"/>
    </linearGradient>
    <linearGradient id="paint15_linear" x1="295.85" x2="290.95" y1="273.45" y2="291.51" gradientUnits="userSpaceOnUse">
      <stop/>
      <stop offset=".98" stop-opacity="0"/>
    </linearGradient>
    <linearGradient id="paint16_linear" x1="27666.3" x2="27810.7" y1="12163.5" y2="6587.57" gradientUnits="userSpaceOnUse">
      <stop stop-opacity="0"/>
      <stop offset=".91" stop-opacity=".8"/>
      <stop offset="1"/>
    </linearGradient>
    <linearGradient id="paint17_linear" x1="6125.88" x2="6955.64" y1="3185.32" y2="3185.32" gradientUnits="userSpaceOnUse">
      <stop stop-color="#ECC4D7"/>
      <stop offset=".42" stop-color="#EFD4D1"/>
      <stop offset="1" stop-color="#F2EAC9"/>
    </linearGradient>
    <linearGradient id="paint18_linear" x1="7341.97" x2="7922.83" y1="3426.28" y2="3426.28" gradientUnits="userSpaceOnUse">
      <stop stop-color="#ECC4D7"/>
      <stop offset=".42" stop-color="#EFD4D1"/>
      <stop offset="1" stop-color="#F2EAC9"/>
    </linearGradient>
    <linearGradient id="paint19_linear" x1="7087.76" x2="7146.83" y1="4942.6" y2="5723.65" gradientUnits="userSpaceOnUse">
      <stop stop-color="#ECC4D7"/>
      <stop offset=".42" stop-color="#EFD4D1"/>
      <stop offset="1" stop-color="#F2EAC9"/>
    </linearGradient>
    <linearGradient id="paint20_linear" x1="82.53" x2="73.86" y1="46.97" y2="67.96" gradientUnits="userSpaceOnUse">
      <stop stop-color="#ECC4D7"/>
      <stop offset=".27" stop-color="#ECC6D6"/>
      <stop offset=".37" stop-color="#EECDD4"/>
      <stop offset=".42" stop-color="#EFD4D1"/>
      <stop offset="1" stop-color="#F2EAC9"/>
    </linearGradient>
    <linearGradient id="paint21_linear" x1="7209.51" x2="8056.49" y1="7327.29" y2="8551.45" gradientUnits="userSpaceOnUse">
      <stop stop-color="#ECC4D7"/>
      <stop offset=".42" stop-color="#EFD4D1"/>
      <stop offset="1" stop-color="#F2EAC9"/>
    </linearGradient>
    <linearGradient id="paint22_linear" x1="3416.32" x2="2695.34" y1="-4038.55" y2="-3652.76" gradientUnits="userSpaceOnUse">
      <stop stop-opacity="0"/>
      <stop offset=".91" stop-opacity=".8"/>
      <stop offset="1"/>
    </linearGradient>
    <linearGradient id="paint23_linear" x1="1415.69" x2="1302.86" y1="2253.13" y2="2226.45" gradientUnits="userSpaceOnUse">
      <stop stop-opacity="0"/>
      <stop offset=".91" stop-opacity=".8"/>
      <stop offset="1"/>
    </linearGradient>
    <linearGradient id="paint24_linear" x1="15426.4" x2="5196.29" y1="4640.99" y2="2512" gradientUnits="userSpaceOnUse">
      <stop stop-opacity="0"/>
      <stop offset=".91" stop-opacity=".8"/>
      <stop offset="1"/>
    </linearGradient>
    <linearGradient id="paint25_linear" x1="6442.03" x2="6435.46" y1="3437.59" y2="2852.85" gradientUnits="userSpaceOnUse">
      <stop stop-opacity="0"/>
      <stop offset=".91" stop-opacity=".8"/>
      <stop offset="1"/>
    </linearGradient>
    <clipPath id="clip0">
      <path fill="#fff" d="M0 0h167v152H0z"/>
    </clipPath>
  </defs>
</svg>